<svg width="500" height="96" viewBox="0 0 500 96" fill="none" xmlns="http://www.w3.org/2000/svg">
<path d="M446.467 58.2623V41.6577V25.0531H500V38.1355H459.598V45.1799H500V78.3891H446.467V65.3066H486.869V58.2623H446.467Z" fill="#FEFEFE" fill-opacity="0.97"/>
<path d="M26.2818 5.19798C29.8978 3.45702 35.1198 1.60535 37.8975 1.08205C40.6751 0.548694 45.2204 0.0656511 47.9981 0.00527077C50.7757 -0.065173 55.7755 0.578884 59.1087 1.43427C62.4419 2.2796 67.6639 4.20171 70.7244 5.71122C73.7849 7.21066 78.8453 10.9341 81.9765 13.9733C85.7743 17.6699 88.9021 22.034 91.3599 27.0657C93.7336 31.9364 95.2992 36.8574 96.4809 47.2932L77.3403 46.6894L76.6737 42.664C76.3101 40.4501 75.0879 36.8272 73.9667 34.6133C72.8354 32.3993 70.3911 29.169 68.5427 27.428C66.6842 25.6871 63.2399 23.3121 60.8763 22.1447C58.5128 20.9774 54.1998 19.7396 51.2808 19.3874C47.7455 18.9714 44.1262 19.2901 40.4226 20.3434C37.3722 21.2088 32.7057 23.5234 30.0695 25.4959C26.8979 27.8608 24.4132 30.8697 22.7264 34.3617C21.3224 37.27 19.8982 42.1306 19.5649 45.1799C19.1507 48.9134 19.4841 52.5966 20.5951 56.5012C21.7971 60.7077 23.5748 63.7267 27.1201 67.5709C29.7968 70.4792 33.7764 73.5888 35.9581 74.4945C38.1298 75.4002 41.8468 76.4166 48.5031 77.3827L48.5233 96L41.6953 95.4264C36.9985 95.0339 32.6552 93.8162 27.7969 91.5419C23.6354 89.5997 18.4437 86.0574 15.1711 82.9377C12.1106 80.0193 8.17139 74.9675 6.39368 71.717C4.62608 68.4665 2.46455 63.0927 1.5959 59.7718C0.727243 56.4509 0.0101006 51.4695 0 48.702C0 45.9346 0.464628 41.1746 1.02016 38.1355C1.58579 35.0863 3.50491 29.652 5.29272 26.0594C7.14113 22.3158 10.9187 17.1332 14.1206 13.933C17.4538 10.6121 22.3728 7.06977 26.2818 5.19798Z" fill="#3AC1B9" fill-opacity="0.94"/>
<path fill-rule="evenodd" clip-rule="evenodd" d="M118.197 25.0531H171.73V38.1355H131.328V65.3066H158.6V58.2623H148.499V45.1799H171.73V78.3891H118.197V25.0531ZM179.811 25.0531H192.942V65.3066H233.344V78.3891H179.811V25.0531ZM241.425 25.0531H294.958V78.3891H241.425V25.0531ZM254.555 65.3066H281.827V38.1355H254.555V65.3066ZM302.028 25.0531H316.169V65.3066H333.34V25.0531H346.471V65.3066H363.642V25.0531H376.773V78.3891H302.028V25.0531ZM384.853 25.0531H438.386V38.1355H397.984V45.1799H438.386V58.2623H397.984V65.3066H438.386V78.3891H384.853V25.0531Z" fill="#FEFEFE" fill-opacity="0.97"/>
<path d="M77.7847 62.9417C77.7746 62.197 79.1483 59.7013 80.825 57.4069C82.4916 55.1124 84.3198 53.2306 84.8754 53.2306C85.4208 53.2306 87.451 55.1527 89.3802 57.5075C91.3095 59.8623 92.8952 62.348 92.9155 63.0424C92.9357 63.7367 92.1478 64.2802 91.1781 64.26C90.2085 64.2399 88.855 63.4449 88.1783 62.4989C87.0773 60.9592 86.946 61.0398 86.9056 63.294C86.8753 64.6726 86.0672 68.2955 85.1077 71.3447C83.9158 75.0983 81.9765 78.2582 79.0574 81.1565C76.6939 83.5113 73.0577 86.2788 70.9769 87.3153C68.8962 88.3518 65.0277 89.4789 62.3914 89.8311C59.3208 90.2337 57.7755 90.1028 58.0987 89.4588C58.3714 88.9053 59.6239 88.4524 60.8763 88.4424C62.1288 88.4323 65.4216 87.3857 68.1993 86.0976C70.9769 84.8196 74.5526 82.2131 76.1383 80.3212C77.7342 78.4293 79.6029 75.521 80.2897 73.8605C80.9866 72.2001 81.8856 68.7986 82.2997 66.313C82.9159 62.6096 82.8148 62.0159 81.7341 63.0424C81.0169 63.7367 79.8251 64.3003 79.1079 64.3003C78.3807 64.3003 77.7948 63.6864 77.7847 62.9417Z" fill="#3AC1B9" fill-opacity="0.94"/>
</svg>
