<svg width="240" height="240" viewBox="0 0 240 240" fill="none" xmlns="http://www.w3.org/2000/svg">
<path fill-rule="evenodd" clip-rule="evenodd" d="M123 0.0977145C129.32 0.347714 137.88 1.18771 142 1.96771C146.13 2.74771 152.43 4.27772 156 5.36772C159.57 6.45772 166.1 9.00771 170.5 11.0277C174.9 13.0577 182.1 17.1177 186.5 20.0377C190.9 22.9677 198.05 28.6777 202.38 32.7277C206.72 36.7777 212.81 43.4777 215.91 47.5977C219.01 51.7277 223.84 59.5977 226.65 65.0977C229.45 70.5977 232.93 78.6977 234.37 83.0977C235.82 87.4977 237.68 94.9177 238.5 99.5977C239.32 104.278 240 110.008 240 116.598H194L193.46 112.848C193.16 110.788 192.27 106.168 191.47 102.598C190.67 99.0277 187.92 91.8177 185.35 86.5977C181.4 78.5877 179.25 75.6777 171.59 68.0477C163.94 60.4277 160.99 58.2577 153 54.3377C146.88 51.3377 140.48 49.0877 135 48.0077C128.79 46.7777 123.68 46.4777 116 46.8677C109.33 47.2177 102.94 48.2177 98.5 49.6177C94.65 50.8377 89.25 52.9577 86.5 54.3277C83.75 55.7077 78.59 58.9177 75.03 61.4677C71.47 64.0177 66.18 69.0277 63.26 72.5977C60.35 76.1677 56.34 82.4777 54.36 86.5977C52.37 90.7277 49.89 97.4777 48.84 101.598C47.5733 106.598 46.94 112.598 46.94 119.598C46.93 126.978 47.55 132.478 49 138.098C50.13 142.498 52.21 148.578 53.6 151.598C55 154.618 58.07 159.798 60.42 163.098C62.77 166.398 67.42 171.578 70.74 174.598C74.06 177.618 79.87 181.818 83.64 183.928C87.41 186.038 93.87 188.888 98 190.268C102.13 191.658 108.54 193.078 119.02 194.098L119 239.598L111.25 239.588C106.72 239.588 99.14 238.588 93 237.198C87.22 235.878 78.45 233.068 73.5 230.938C68.55 228.818 61.12 224.978 57 222.418C52.87 219.858 46.12 214.888 42 211.368C37.87 207.858 32.07 202.078 29.09 198.538C26.11 194.998 21.78 189.168 19.47 185.598C17.15 182.028 13.79 176.168 12 172.598C10.21 169.028 7.44 162.048 5.83 157.098C4.23 152.148 2.26001 144.048 1.46001 139.098C0.660007 134.148 0.01 125.938 0 120.848C0 115.758 0.489996 108.108 1.09 103.848C1.69 99.5877 3.28999 91.8177 4.64999 86.5977C6.00999 81.3777 9.15 72.8177 11.63 67.5977C14.11 62.3777 18.24 54.9477 20.8 51.0977C23.36 47.2477 29.52 40.0377 34.48 35.0677C39.44 30.1077 47.32 23.4977 52 20.3877C56.68 17.2777 64.1 13.0877 68.5 11.0877C72.9 9.08772 80.32 6.35771 85 5.02771C89.68 3.68771 97.55 1.92772 102.5 1.11772C108.33 0.167719 115.54 -0.192286 123 0.0977145ZM211.97 133.558C212.26 133.528 213.45 134.318 214.61 135.308C215.76 136.288 219.78 141.368 223.53 146.598C227.28 151.828 230.38 156.708 230.43 157.458C230.47 158.208 229.72 159.338 228.77 159.958C227.32 160.918 226.24 160.298 222.01 156.098C219.24 153.348 216.99 151.328 217 151.598C217.01 151.868 216.33 156.148 215.48 161.098C214.64 166.048 213 173.028 211.85 176.598C210.7 180.168 208.25 186.028 206.41 189.598C204.57 193.168 201.36 198.078 199.28 200.508C197.2 202.938 193.02 206.808 190 209.118C186.98 211.428 181.8 214.668 178.5 216.318C175.2 217.968 170.25 220.018 167.5 220.868C164.75 221.718 161.49 222.678 160.25 223.008C158.69 223.418 158.15 223.218 158.48 222.348C158.75 221.658 160.89 220.488 163.23 219.738C165.58 218.988 169.98 217.108 173 215.568C176.02 214.028 181.43 210.338 185 207.378C188.57 204.418 193.15 199.548 195.17 196.548C197.19 193.548 200.05 187.948 201.51 184.098C202.98 180.248 204.78 173.948 205.51 170.098C206.25 166.248 206.99 160.768 207.17 157.928C207.35 155.078 207.27 152.498 207 152.198C206.73 151.888 204.7 153.438 202.5 155.628C200.3 157.828 197.94 159.618 197.25 159.618C196.56 159.608 195.56 158.808 195.03 157.848C194.26 156.458 195.5 154.028 201.06 146.098C204.91 140.598 208.82 135.538 209.75 134.848C210.69 134.158 211.69 133.578 211.97 133.558Z" fill="#38C2BA"/>
</svg>
